HIERARCHY
ROOT Hips
{
	OFFSET 0.000000 0.000000 0.000000
	CHANNELS 6 Xposition Yposition Zposition Xrotation Yrotation Zrotation
	JOINT LeftUpLeg_virtual
	{
		OFFSET 0.000000 0.000000 0.000000
		CHANNELS 3 Xrotation Yrotation Zrotation
		JOINT LeftUpLeg
		{
			OFFSET 15.427100 -6.655098 0.678600
			CHANNELS 3 Xrotation Yrotation Zrotation
			JOINT LeftLeg
			{
				OFFSET 4.081073 -39.591068 13.024000
				CHANNELS 3 Xrotation Yrotation Zrotation
				JOINT LeftFoot
				{
					OFFSET -4.081074 -37.707932 -15.979700
					CHANNELS 3 Xrotation Yrotation Zrotation
					JOINT LeftToeBase
					{
						OFFSET 5.346399 -15.068900 20.645000
						CHANNELS 3 Xrotation Yrotation Zrotation
						JOINT LeftToe_End
						{
							OFFSET 2.754700 0.931300 11.300900
							CHANNELS 3 Xrotation Yrotation Zrotation
							End Site
							{
								OFFSET 0 0 0
							}
						}
					}
				}
			}
		}
	}
	JOINT RightUpLeg_virtual
	{
		OFFSET 0.000000 0.000000 0.000000
		CHANNELS 3 Xrotation Yrotation Zrotation
		JOINT RightUpLeg
		{
			OFFSET -15.569500 -6.655098 0.678600
			CHANNELS 3 Xrotation Yrotation Zrotation
			JOINT RightLeg
			{
				OFFSET -4.081825 -39.591045 13.023800
				CHANNELS 3 Xrotation Yrotation Zrotation
				JOINT RightFoot
				{
					OFFSET 4.081824 -37.707954 -15.979600
					CHANNELS 3 Xrotation Yrotation Zrotation
					JOINT RightToeBase
					{
						OFFSET -5.346400 -15.068900 20.645000
						CHANNELS 3 Xrotation Yrotation Zrotation
						JOINT RightToe_End
						{
							OFFSET -2.754700 0.931300 11.300900
							CHANNELS 3 Xrotation Yrotation Zrotation
							End Site
							{
								OFFSET 0 0 0
							}
						}
					}
				}
			}
		}
	}
	JOINT Spine_virtual
	{
		OFFSET 0.000000 0.000000 0.000000
		CHANNELS 3 Xrotation Yrotation Zrotation
		JOINT Spine
		{
			OFFSET -0.279200 12.230698 -2.892100
			CHANNELS 3 Xrotation Yrotation Zrotation
			JOINT Spine1
			{
				OFFSET -0.232667 10.192268 -1.242267
				CHANNELS 3 Xrotation Yrotation Zrotation
				JOINT Spine1_split
				{
					OFFSET -0.232667 10.192268 -1.242267
					CHANNELS 3 Xrotation Yrotation Zrotation
					JOINT Spine2
					{
						OFFSET -0.232667 10.192268 -1.242267
						CHANNELS 3 Xrotation Yrotation Zrotation
						JOINT Neck_virtual
						{
							OFFSET 0.000000 0.000000 0.000000
							CHANNELS 3 Xrotation Yrotation Zrotation
							JOINT Neck
							{
								OFFSET -0.418800 17.814194 8.416900
								CHANNELS 3 Xrotation Yrotation Zrotation
								JOINT Head
								{
									OFFSET 0.000000 7.031097 3.806800
									CHANNELS 3 Xrotation Yrotation Zrotation
									JOINT HeadTop_End
									{
										OFFSET 0.000000 24.646606 12.978600
										CHANNELS 3 Xrotation Yrotation Zrotation
										End Site
										{
											OFFSET 0 0 0
										}
									}
								}
							}
						}
						JOINT LeftShoulder_virtual
						{
							OFFSET 0.000000 0.000000 0.000000
							CHANNELS 3 Xrotation Yrotation Zrotation
							JOINT LeftShoulder
							{
								OFFSET 8.476499 7.247704 -3.868750
								CHANNELS 3 Xrotation Yrotation Zrotation
								JOINT LeftShoulder_split
								{
									OFFSET 8.476499 7.247704 -3.868750
									CHANNELS 3 Xrotation Yrotation Zrotation
									JOINT LeftArm
									{
										OFFSET 9.308998 -2.777710 0.208600
										CHANNELS 3 Xrotation Yrotation Zrotation
										JOINT LeftForeArm
										{
											OFFSET 29.972298 0.000000 0.000000
											CHANNELS 3 Xrotation Yrotation Zrotation
											JOINT LeftHand
											{
												OFFSET 26.026505 0.000000 0.000000
												CHANNELS 3 Xrotation Yrotation Zrotation
												End Site
												{
													OFFSET 0 0 0
												}
											}
										}
									}
								}
							}
						}
						JOINT RightShoulder_virtual
						{
							OFFSET 0.000000 0.000000 0.000000
							CHANNELS 3 Xrotation Yrotation Zrotation
							JOINT RightShoulder
							{
								OFFSET -7.570500 7.247704 -3.868750
								CHANNELS 3 Xrotation Yrotation Zrotation
								JOINT RightShoulder_split
								{
									OFFSET -7.570500 7.247704 -3.868750
									CHANNELS 3 Xrotation Yrotation Zrotation
									JOINT RightArm
									{
										OFFSET -9.308998 -2.777710 0.208500
										CHANNELS 3 Xrotation Yrotation Zrotation
										JOINT RightForeArm
										{
											OFFSET -29.972300 0.000000 0.000000
											CHANNELS 3 Xrotation Yrotation Zrotation
											JOINT RightHand
											{
												OFFSET -26.026505 0.000000 0.000000
												CHANNELS 3 Xrotation Yrotation Zrotation
												End Site
												{
													OFFSET 0 0 0
												}
											}
										}
									}
								}
							}
						}
					}
				}
			}
		}
	}
}
MOTION
Frames: 7
Frame Time: 0.03333333
2.380610 84.583862 -3.596771 0.000000 0.000000 0.000000 -10.373350 -47.978537 -7.661586 -24.030021 -6.003697 19.834567 34.170548 -4.684315 -4.443126 0.589905 -5.764180 -16.732970 -7.094380 -4.064135 2.787980 0.000000 0.000000 0.000000 -9.345753 -42.097506 -6.729732 -2.491012 -17.022124 -14.545252 41.204755 -0.938672 -5.967862 -17.120965 -2.913638 18.368052 3.396799 0.793801 1.413938 0.000000 0.000000 0.000000 -13.448867 -43.375786 -10.065642 7.784300 5.318082 -1.102628 13.582505 9.683236 -4.060232 0.690747 1.669769 0.130643 0.000000 0.000000 0.000000 11.110401 8.781128 -4.368913 -5.919936 -3.392430 3.235576 -12.182745 21.719240 -0.210072 0.000000 0.000000 0.000000 11.873321 9.273961 -4.125277 2.987738 -2.693524 -5.036637 -2.818368 -1.780834 -3.783674 -15.626523 -1.943509 -57.986230 17.223130 -54.047038 8.253776 0.000000 0.000000 0.000000 12.298467 9.347020 -4.142337 1.205537 9.838511 12.189681 0.388413 3.870075 4.443040 4.183271 -19.353372 63.328442 -1.946172 48.463406 3.371245 0.000000 0.000000 0.000000 
2.252853 84.435623 -3.020950 0.000000 0.000000 0.000000 -8.303104 -46.453264 -6.549438 -24.676753 -6.453474 20.158663 33.301964 -3.824037 -4.243217 1.209757 -5.949257 -14.748076 -5.931995 -3.927101 2.379758 0.000000 0.000000 0.000000 -8.217991 -40.613254 -6.341521 -3.444638 -17.378938 -12.985329 40.853458 -0.525109 -7.705837 -16.687317 -2.663511 20.683846 2.861568 0.806737 1.493559 0.000000 0.000000 0.000000 -11.496748 -42.712974 -9.142232 7.778684 5.590477 -0.923843 13.511940 9.711825 -4.109954 -0.037424 0.587364 0.562311 0.000000 0.000000 0.000000 10.779868 8.875530 -4.195691 -5.879493 -3.303610 2.786763 -11.839725 21.996860 -0.007195 0.000000 0.000000 0.000000 11.885294 9.240763 -4.214371 2.991337 -2.629914 -5.313245 -2.747920 -1.464486 -3.497339 -12.521633 -1.454590 -56.936426 18.677569 -56.058518 8.852393 0.000000 0.000000 0.000000 12.245360 9.547117 -3.892619 1.397521 10.057320 11.844388 0.439010 4.810994 2.900493 3.386851 -19.686070 62.188797 -0.781216 49.069435 2.130323 0.000000 0.000000 0.000000 
1.888696 83.797600 -3.082504 0.000000 0.000000 0.000000 -5.114200 -43.575832 -5.194005 -28.121053 -6.282697 20.734656 32.858264 -2.742185 -2.939334 3.423182 -7.155170 -12.743884 -5.379969 -3.805925 1.853820 0.000000 0.000000 0.000000 -5.436814 -37.138372 -5.575127 -5.429641 -18.015116 -10.114962 41.637643 -0.010242 -10.957462 -15.803405 -1.492598 22.840725 0.928477 0.896085 1.201828 0.000000 0.000000 0.000000 -8.590223 -40.438733 -8.163679 8.075729 5.552692 -0.883673 13.498464 9.476890 -3.858328 -0.185651 -0.471638 0.983961 0.000000 0.000000 0.000000 10.509777 8.772375 -3.658362 -5.841007 -3.428675 2.038335 -11.103308 22.142488 0.127920 0.000000 0.000000 0.000000 12.001378 8.994788 -4.030074 3.025693 -2.941342 -5.560941 -2.873517 -1.187141 -2.817335 -6.785623 -0.787780 -55.553624 18.705774 -60.949842 7.954595 0.000000 0.000000 0.000000 12.238762 9.573396 -3.338021 1.675683 10.000043 11.040767 0.670563 4.933227 2.108069 3.139188 -18.238915 60.986582 2.499493 50.374114 -1.266193 0.000000 0.000000 0.000000 
1.413654 82.678207 -3.914902 0.000000 0.000000 0.000000 -1.148500 -39.649310 -4.005144 -34.270922 -5.600213 21.519259 33.252055 -1.819401 -0.864813 6.846493 -9.569030 -11.185446 -6.065144 -3.727953 1.867683 0.000000 0.000000 0.000000 -1.606405 -32.653659 -4.928914 -8.371172 -19.012854 -6.060221 44.038307 -0.016390 -15.488788 -15.414057 -0.006412 23.963903 -1.824610 1.022204 0.695942 0.000000 0.000000 0.000000 -4.817189 -37.204826 -7.267340 8.490909 5.268926 -1.011990 13.489769 9.027443 -3.386544 0.184870 -1.378355 0.992945 0.000000 0.000000 0.000000 10.414419 8.458190 -2.910839 -5.996735 -3.620709 1.163153 -10.142996 22.264053 0.086821 0.000000 0.000000 0.000000 12.156021 8.617316 -3.622907 3.053764 -3.433788 -5.609612 -2.829917 -1.470324 -1.666401 0.427971 -0.147920 -54.164483 17.410355 -67.783193 5.848467 0.000000 0.000000 0.000000 12.309728 9.400556 -2.643663 1.925746 9.613784 9.937585 1.445880 4.973304 2.028062 3.336259 -15.383903 60.133655 7.638577 52.240688 -6.591849 0.000000 0.000000 0.000000 
0.772680 81.144012 -5.158249 0.000000 0.000000 0.000000 3.235555 -35.143075 -3.259215 -42.179365 -4.728765 22.391387 35.253151 -1.040280 1.629615 10.769354 -12.656790 -9.477127 -7.520352 -3.607436 2.450584 0.000000 0.000000 0.000000 2.762124 -27.980396 -4.576541 -12.241180 -20.706053 -1.108431 48.805468 -1.281359 -20.785446 -15.547517 1.243438 23.693996 -4.451088 1.191938 0.077549 0.000000 0.000000 0.000000 -0.585286 -33.680599 -6.602386 8.880515 4.888263 -1.271578 13.467873 8.430186 -2.821812 0.815233 -1.891266 0.870703 0.000000 0.000000 0.000000 10.600645 7.972730 -2.156674 -6.650936 -3.747537 0.319807 -9.269356 22.477094 -0.058822 0.000000 0.000000 0.000000 12.373233 8.164543 -3.115932 3.088169 -3.839588 -5.326168 -2.346061 -2.387848 -0.567868 7.474892 0.193512 -53.402862 14.898082 -74.829476 2.643736 0.000000 0.000000 0.000000 12.510691 9.012120 -1.997456 2.097689 8.727286 8.594506 2.636125 4.990310 2.186787 3.753775 -11.632666 59.924849 14.193879 54.354160 -13.455256 0.000000 0.000000 0.000000 
0.118302 79.156616 -6.636639 0.000000 0.000000 0.000000 7.776309 -30.596379 -3.040188 -50.985880 -3.830013 23.097770 38.504587 0.092526 3.945074 13.831256 -15.493521 -6.838313 -8.439171 -3.327230 3.129301 0.000000 0.000000 0.000000 7.508332 -23.547499 -4.463627 -17.444587 -23.273142 4.085185 56.154592 -4.207753 -26.020743 -15.746415 2.199191 22.496490 -6.389597 1.361111 -0.585576 0.000000 0.000000 0.000000 4.120786 -30.764415 -5.962768 9.141198 4.620972 -1.558851 13.433540 7.774975 -2.261270 1.429886 -1.684337 0.776122 0.000000 0.000000 0.000000 11.051768 7.420155 -1.541923 -8.135179 -3.837001 -0.438919 -8.774906 22.870180 -0.245199 0.000000 0.000000 0.000000 12.613131 7.702831 -2.539875 3.115989 -3.809549 -4.546206 -2.018201 -3.508822 0.213741 13.236315 -0.261601 -53.772225 12.090496 -79.923363 -0.668541 0.000000 0.000000 0.000000 12.862352 8.460889 -1.529413 2.236703 7.151699 6.984530 4.028083 4.657927 2.520288 3.642217 -7.940300 60.329900 21.112455 55.843657 -20.867543 0.000000 0.000000 0.000000 
-0.302220 76.661110 -8.438656 0.000000 0.000000 0.000000 12.300022 -26.107239 -3.302630 -60.147001 -3.027984 23.436869 42.223939 1.807680 5.659844 15.071712 -17.791774 -3.764905 -8.379260 -2.836250 3.353760 0.000000 0.000000 0.000000 12.089073 -19.773015 -4.604946 -24.387930 -26.493643 8.668069 65.347958 -8.413576 -30.348300 -15.486827 2.831054 21.342103 -7.664586 1.463063 -1.228354 0.000000 0.000000 0.000000 8.925224 -28.561840 -5.378891 9.305008 4.519847 -1.882433 13.418711 7.150741 -1.729367 1.687612 -0.897883 0.811250 0.000000 0.000000 0.000000 11.653864 6.841256 -1.064778 -10.674855 -3.867176 -1.024200 -8.835029 23.318889 -0.254639 0.000000 0.000000 0.000000 12.900857 7.257219 -1.951193 3.151830 -3.125628 -3.227682 -2.415878 -4.285634 0.682427 16.610105 -1.708867 -55.422699 12.537762 -82.011311 -0.337434 0.000000 0.000000 0.000000 13.400120 7.836748 -1.215273 2.339649 4.855218 4.934346 5.540483 4.625796 2.535673 2.171125 -5.034696 61.458992 26.736840 56.042788 -27.324797 0.000000 0.000000 0.000000 
